OpenSim_Sub11_CSPreOp_LCS.mot
version=1
nRows=57
nColumns=11
inDegrees=no
endheader
time	Bot_Shank	2nd_Bot_Shank	2nd_Top_Shank	Top_Shank	Bot_Thigh	Med_Thigh	Top_Thigh	BNOx	BNOy	BNOZ
0	9003.26603705	9567.01054846	9862.90500096	9203.83047446	10336.88266284	11232	11439.46969296	187.44003338	-80.50000626	109.81001950
0.01000000	9003.69208533	9567.01633122	9863.29242290	9204.10618046	10336.96780355	11232	11439.73711326	187.44003567	-80.50000669	109.81002085
0.02000000	9004.21722561	9567.02087026	9863.87158133	9204.60947044	10336.66598286	11232	11439.81156587	187.44003243	-80.50000608	109.81001895
0.03000000	9004.77602255	9567.02283611	9864.58719725	9205.34542091	10336.24774646	11232	11439.73406582	187.44002545	-80.50000477	109.81001487
0.04000000	9005.30304082	9567.02089932	9865.38399167	9206.31910833	10335.98364006	11232	11439.54562814	187.44001652	-80.50000310	109.81000965
0.05000000	9005.73284508	9567.01373043	9866.20668558	9207.53560920	10336.14420934	11232	11439.28726786	187.44000744	-80.50000139	109.81000435
0.06000000	9006	9567	9867	9209.00000000	10337.00000000	11232	11439	187.44000000	-80.50000000	109.81000000
0.07000000	9006.05972447	9566.97977028	9867.71781218	9210.69808644	10338.73049657	11232	11438.72038357	187.43999558	-80.49999917	109.80999742
0.08000000	9005.94985432	9566.95867044	9868.35062437	9212.53859114	10341.15093891	11232	11438.46715351	187.43999389	-80.49999885	109.80999643
0.09000000	9005.72887960	9566.94372137	9868.89809510	9214.41096592	10343.98550573	11232	11438.25458871	187.43999422	-80.49999892	109.80999662
0.10000000	9005.45529037	9566.94194394	9869.35988286	9216.20466263	10346.95837573	11232	11438.09696808	187.43999585	-80.49999922	109.80999757
0.11000000	9005.18757669	9566.96035904	9869.73564617	9217.80913308	10349.79372761	11232	11438.00857054	187.43999808	-80.49999964	109.80999888
0.12000000	9004.98421436	9567.00598518	9870.02504525	9219.11385536	10352.21579129	11232	11438.00366821	187.44000019	-80.50000003	109.81000011
0.13000000	9004.88476202	9567.08269580	9870.23000924	9220.04311548	10354.01676851	11232	11438.08753982	187.44000165	-80.50000031	109.81000097
0.14000000	9004.87256861	9567.18501912	9870.35920911	9220.62462655	10355.19083000	11232	11438.23874146	187.44000248	-80.50000047	109.81000145
0.15000000	9004.92059071	9567.30575562	9870.42256229	9220.90522375	10355.76948744	11232	11438.43088860	187.44000279	-80.50000052	109.81000163
0.16000000	9005.00178494	9567.43770574	9870.42998619	9220.93174229	10355.78425252	11232	11438.63759672	187.44000269	-80.50000051	109.81000157
0.17000000	9005.08910790	9567.57366995	9870.39139825	9220.75101733	10355.26663693	11232	11438.83248130	187.44000229	-80.50000043	109.81000134
0.18000000	9005.15551620	9567.70644869	9870.31671588	9220.40988409	10354.24815235	11232	11438.98915780	187.44000171	-80.50000032	109.81000100
0.19000000	9005.17396643	9567.82884243	9870.21585650	9219.95517774	10352.76031047	11232	11439.08124171	187.44000104	-80.50000019	109.81000061
0.20000000	9005.11741520	9567.93365162	9870.09873755	9219.43373347	10350.83462298	11232	11439.08234850	187.44000041	-80.50000008	109.81000024
0.21000000	9004.95890652	9568.01369079	9869.97528968	9218.89235827	10348.50283935	11232	11438.96618161	187.43999992	-80.49999998	109.80999995
0.22000000	9004.69001423	9568.06475862	9869.85824963	9218.37188053	10345.84712079	11232	11438.72509536	187.43999964	-80.49999993	109.80999979
0.23000000	9004.34365468	9568.08931177	9869.76661492	9217.89978958	10343.06210368	11232	11438.39305652	187.43999955	-80.49999991	109.80999973
0.24000000	9003.95833814	9568.09070778	9869.72023016	9217.50176988	10340.35764307	11232	11438.00966235	187.43999958	-80.49999992	109.80999976
0.25000000	9003.57257488	9568.07230419	9869.73893997	9217.20350590	10337.94359400	11232	11437.61451009	187.43999971	-80.49999994	109.80999983
0.26000000	9003.22487514	9568.03745854	9869.84258898	9217.03068212	10336.02981149	11232	11437.24719697	187.43999987	-80.49999998	109.80999992
0.27000000	9002.95368340	9567.98952592	9870.05096155	9217.00890590	10334.82569394	11232	11436.94725344	187.44000003	-80.50000001	109.81000002
0.28000000	9002.78349284	9567.93134272	9870.37106635	9217.14743962	10334.44383096	11232	11436.74005009	187.44000015	-80.50000003	109.81000009
0.29000000	9002.70766953	9567.86458802	9870.78140781	9217.41907778	10334.78081898	11232	11436.61936498	187.44000024	-80.50000005	109.81000014
0.30000000	9002.71536782	9567.79078431	9871.25663353	9217.79168055	10335.70402914	11232	11436.57470149	187.44000030	-80.50000006	109.81000017
0.31000000	9002.79574210	9567.71145408	9871.77139113	9218.23310811	10337.08083259	11232	11436.59556301	187.44000032	-80.50000006	109.81000019
0.32000000	9002.93794673	9567.62811984	9872.30032822	9218.71122063	10338.77860047	11232	11436.67145291	187.44000033	-80.50000006	109.81000019
0.33000000	9003.13113606	9567.54230405	9872.81809241	9219.19387828	10340.66470391	11232	11436.79187458	187.44000031	-80.50000006	109.81000018
0.34000000	9003.36446447	9567.45552923	9873.29933131	9219.64894124	10342.60651408	11232	11436.94633141	187.44000028	-80.50000005	109.81000016
0.35000000	9003.62708632	9567.36931786	9873.71869254	9220.04426967	10344.47140209	11232	11437.12432677	187.44000024	-80.50000004	109.81000014
0.36000000	9003.90815598	9567.28519244	9874.05082371	9220.34772375	10346.12673911	11232	11437.31536405	187.44000019	-80.50000004	109.81000011
0.37000000	9004.19682781	9567.20467544	9874.27037243	9220.52716365	10347.43989626	11232	11437.50894663	187.44000014	-80.50000003	109.81000008
0.38000000	9004.48225618	9567.12928938	9874.35198631	9220.55044955	10348.27824470	11232	11437.69457789	187.44000008	-80.50000002	109.81000005
0.39000000	9004.75359546	9567.06055673	9874.27031296	9220.38544161	10348.50915557	11232	11437.86176122	187.44000004	-80.50000001	109.81000002
0.40000000	9005	9567	9874	9220	10348	11232	11438	187.44000000	-80.50000000	109.81000000
0.41000000	9005.21093970	9566.94918604	9873.53134108	9219.37921165	10346.67765744	11232	11438.10109854	187.43999998	-80.50000000	109.80999999
0.42000000	9005.37714651	9566.90985919	9872.91721400	9218.57707048	10344.70704049	11232	11438.16606489	187.43999996	-80.49999999	109.80999998
0.43000000	9005.48966792	9566.88380816	9872.22614263	9217.66479715	10342.31257006	11232	11438.19820800	187.43999996	-80.49999999	109.80999998
0.44000000	9005.53955141	9566.87282166	9871.52665081	9216.71361233	10339.71866706	11232	11438.20083684	187.43999996	-80.49999999	109.80999998
0.45000000	9005.51784446	9566.87868840	9870.88726240	9215.79473668	10337.14975240	11232	11438.17726038	187.43999997	-80.49999999	109.80999998
0.46000000	9005.41559454	9566.90319709	9870.37650125	9214.97939088	10334.83024697	11232	11438.13078758	187.43999998	-80.50000000	109.80999999
0.47000000	9005.22384915	9566.94813644	9870.06289120	9214.33879558	10332.98457168	11232	11438.06472741	187.43999999	-80.50000000	109.81000000
0.48000000	9004.93371329	9567.01528583	9870.01476227	9213.94401574	10331.83668767	11232	11437.98239880	187.44000000	-80.50000000	109.81000000
0.49000000	9004.54848850	9567.10444817	9870.25934586	9213.83310353	10331.51308455	11232	11437.88923155	187.44000001	-80.50000000	109.81000000
0.50000000	9004.09868837	9567.21101658	9870.73217708	9213.97045524	10331.92278012	11232	11437.79536515	187.44000001	-80.50000000	109.81000001
0.51000000	9003.61850846	9567.32978751	9871.35638392	9214.31050108	10332.94536679	11232	11437.71157632	187.44000001	-80.50000000	109.81000001
0.52000000	9003.14214434	9567.45555741	9872.05509438	9214.80767122	10334.46043699	11232	11437.64864179	187.44000001	-80.50000000	109.81000001
0.53000000	9002.70379156	9567.58312271	9872.75143644	9215.41639586	10336.34758315	11232	11437.61733829	187.44000001	-80.50000000	109.81000001
0.54000000	9002.33764568	9567.70727988	9873.36853808	9216.09110518	10338.48639769	11232	11437.62844254	187.44000001	-80.50000000	109.81000001
0.55000000	9002.07790228	9567.82282535	9873.82952730	9216.78622937	10340.75647304	11232	11437.69273128	187.44000001	-80.50000000	109.81000000
0.56000000	9001.95875690	9567.92455557	9874.05753209	9217.45619861	10343.03740162	11232	11437.82098124	187.44000000	-80.50000000	109.81000000
